REM DIRINDEX 1\2,1\3,1\4,1\5
REM DIRNAME cjc044,folder01,folder02,folder03,folder04
TITLE ""
FILE "1800_049.mp3" MP3
  TRACK 01 AUDIO
    TITLE "2:cjc044_1133"
    INDEX 01 00:00:00
  TRACK 02 AUDIO
    TITLE "0:"
    INDEX 01 00:00:66
  TRACK 03 AUDIO
    TITLE "3:cjc044_1134"
    INDEX 01 00:01:54
  TRACK 04 AUDIO
    TITLE "0:"
    INDEX 01 00:03:08
  TRACK 05 AUDIO
    TITLE "4:cjc044_1135"
    INDEX 01 00:03:68
  TRACK 06 AUDIO
    TITLE "0:"
    INDEX 01 00:04:66
  TRACK 07 AUDIO
    TITLE "5:cjc044_1136"
    INDEX 01 00:05:48
  TRACK 08 AUDIO
    TITLE "0:"
    INDEX 01 00:08:30
  TRACK 09 AUDIO
    TITLE "2:cjc044_1137"
    INDEX 01 00:10:14
  TRACK 10 AUDIO
    TITLE "0:"
    INDEX 01 00:11:13
  TRACK 11 AUDIO
    TITLE "3:cjc044_1138"
    INDEX 01 00:11:68
  TRACK 12 AUDIO
    TITLE "0:"
    INDEX 01 00:13:12
  TRACK 13 AUDIO
    TITLE "4:cjc044_1139"
    INDEX 01 00:13:67
  TRACK 14 AUDIO
    TITLE "0:"
    INDEX 01 00:14:68
  TRACK 15 AUDIO
    TITLE "5:cjc044_1140"
    INDEX 01 00:15:44
  TRACK 16 AUDIO
    TITLE "0:"
    INDEX 01 00:19:01
  TRACK 17 AUDIO
    TITLE "2:cjc044_1141"
    INDEX 01 00:20:59
  TRACK 18 AUDIO
    TITLE "0:"
    INDEX 01 00:21:66
  TRACK 19 AUDIO
    TITLE "3:cjc044_1142"
    INDEX 01 00:22:50
  TRACK 20 AUDIO
    TITLE "0:"
    INDEX 01 00:23:46
  TRACK 21 AUDIO
    TITLE "4:cjc044_1143"
    INDEX 01 00:24:33
  TRACK 22 AUDIO
    TITLE "0:"
    INDEX 01 00:25:39
  TRACK 23 AUDIO
    TITLE "5:cjc044_1144"
    INDEX 01 00:26:17
  TRACK 24 AUDIO
    TITLE "0:"
    INDEX 01 00:28:74
  TRACK 25 AUDIO
    TITLE "2:cjc044_1145"
    INDEX 01 00:30:61
  TRACK 26 AUDIO
    TITLE "0:"
    INDEX 01 00:32:03
  TRACK 27 AUDIO
    TITLE "3:cjc044_1146"
    INDEX 01 00:32:64
  TRACK 28 AUDIO
    TITLE "0:"
    INDEX 01 00:34:51
  TRACK 29 AUDIO
    TITLE "4:cjc044_1147"
    INDEX 01 00:35:35
  TRACK 30 AUDIO
    TITLE "0:"
    INDEX 01 00:36:52
  TRACK 31 AUDIO
    TITLE "5:cjc044_1148"
    INDEX 01 00:37:24
  TRACK 32 AUDIO
    TITLE "0:"
    INDEX 01 00:40:17
  TRACK 33 AUDIO
    TITLE "2:cjc044_1149"
    INDEX 01 00:42:16
  TRACK 34 AUDIO
    TITLE "0:"
    INDEX 01 00:43:15
  TRACK 35 AUDIO
    TITLE "3:cjc044_1150"
    INDEX 01 00:43:74
  TRACK 36 AUDIO
    TITLE "0:"
    INDEX 01 00:45:16
  TRACK 37 AUDIO
    TITLE "4:cjc044_1151"
    INDEX 01 00:46:00
  TRACK 38 AUDIO
    TITLE "0:"
    INDEX 01 00:47:01
  TRACK 39 AUDIO
    TITLE "5:cjc044_1152"
    INDEX 01 00:47:56
  TRACK 40 AUDIO
    TITLE "0:"
    INDEX 01 00:51:34
  TRACK 41 AUDIO
    TITLE "2:cjc044_1153"
    INDEX 01 00:53:15
  TRACK 42 AUDIO
    TITLE "0:"
    INDEX 01 00:54:15
  TRACK 43 AUDIO
    TITLE "3:cjc044_1154"
    INDEX 01 00:55:04
  TRACK 44 AUDIO
    TITLE "0:"
    INDEX 01 00:55:59
  TRACK 45 AUDIO
    TITLE "4:cjc044_1155"
    INDEX 01 00:56:41
  TRACK 46 AUDIO
    TITLE "0:"
    INDEX 01 00:57:37
  TRACK 47 AUDIO
    TITLE "5:cjc044_1156"
    INDEX 01 00:58:34
  TRACK 48 AUDIO
    TITLE "0:"
    INDEX 01 01:01:13
  TRACK 49 AUDIO
    TITLE "2:cjc044_1157"
    INDEX 01 01:02:71
  TRACK 50 AUDIO
    TITLE "0:"
    INDEX 01 01:04:03
  TRACK 51 AUDIO
    TITLE "3:cjc044_1158"
    INDEX 01 01:04:60
  TRACK 52 AUDIO
    TITLE "0:"
    INDEX 01 01:06:02
  TRACK 53 AUDIO
    TITLE "4:cjc044_1159"
    INDEX 01 01:06:63
  TRACK 54 AUDIO
    TITLE "0:"
    INDEX 01 01:08:01
  TRACK 55 AUDIO
    TITLE "5:cjc044_1160"
    INDEX 01 01:08:48
  TRACK 56 AUDIO
    TITLE "0:"
    INDEX 01 01:11:35
  TRACK 57 AUDIO
    TITLE "2:cjc044_1161"
    INDEX 01 01:13:28
  TRACK 58 AUDIO
    TITLE "0:"
    INDEX 01 01:14:25
  TRACK 59 AUDIO
    TITLE "3:cjc044_1162"
    INDEX 01 01:15:11
  TRACK 60 AUDIO
    TITLE "0:"
    INDEX 01 01:16:24
  TRACK 61 AUDIO
    TITLE "4:cjc044_1163"
    INDEX 01 01:17:06
  TRACK 62 AUDIO
    TITLE "0:"
    INDEX 01 01:18:06
  TRACK 63 AUDIO
    TITLE "5:cjc044_1164"
    INDEX 01 01:18:60
  TRACK 64 AUDIO
    TITLE "0:"
    INDEX 01 01:21:47
